<svg xmlns="http://www.w3.org/2000/svg" viewBox="0 0 512 512" role="img" aria-label="Infacta document check icon">
  <rect x="44" y="36" width="408" height="448" rx="72" fill="rgba(0,0,0,.22)"/>
  <rect x="28" y="20" width="440" height="448" rx="72" fill="#B21F2D"/>
  <rect x="55" y="48" width="386" height="393" rx="50" fill="#FFFAF2"/>
  <path d="M338 48 L441 151 L338 151 Z" fill="#EEE7DA" stroke="#B21F2D" stroke-width="9" stroke-linejoin="round"/>
  <g fill="#756343" opacity=".82">
    <rect x="126" y="124" width="204" height="13" rx="6"/>
    <rect x="126" y="166" width="204" height="13" rx="6"/>
    <rect x="126" y="208" width="204" height="13" rx="6"/>
    <rect x="126" y="250" width="204" height="13" rx="6"/>
    <rect x="126" y="292" width="204" height="13" rx="6"/>
    <rect x="126" y="334" width="154" height="12" rx="6" opacity=".7"/>
    <rect x="126" y="374" width="154" height="12" rx="6" opacity=".7"/>
  </g>
  <path d="M112 282 L202 372 L392 176" fill="none" stroke="#0E5C27" stroke-width="76" stroke-linecap="round" stroke-linejoin="round"/>
  <path d="M112 282 L202 372 L392 176" fill="none" stroke="#147E35" stroke-width="54" stroke-linecap="round" stroke-linejoin="round"/>
</svg>
