<svg xmlns="http://www.w3.org/2000/svg" width="512" height="512" viewBox="0 0 512 512">
  <defs>
    <radialGradient id="gold" cx="20%" cy="20%" r="100%">
      <stop offset="0%" stop-color="#F2D46A"/>
      <stop offset="35%" stop-color="#fff2a8"/>
      <stop offset="60%" stop-color="#E8C14A"/>
      <stop offset="100%" stop-color="#B8861B"/>
    </radialGradient>
    <filter id="softShadow" x="-20%" y="-20%" width="140%" height="140%">
      <feDropShadow dx="0" dy="6" stdDeviation="8" flood-color="#000000" flood-opacity="0.15"/>
    </filter>
    <clipPath id="shieldClip">
      <path d="M 256.0 96 L 340 146 L 344 356 Q 328.0 402 256.0 444 Q 184.0 402 168 356 L 172 146 Z"/>
    </clipPath>
  </defs>
  <g filter="url(#softShadow)">
    <path d="M 256.0 78 L 358 128 L 362 360 Q 328.0 406 256.0 462 Q 184.0 406 150 360 L 154 128 Z" fill="url(#gold)"/>
    <path d="M 256.0 96 L 340 146 L 344 356 Q 328.0 402 256.0 444 Q 184.0 402 168 356 L 172 146 Z" fill="#ffffff" opacity="0.98"/>
    <g clip-path="url(#shieldClip)">
      <rect x="158" y="88" width="98.0" height="384" fill="#ECECEC"/>
      <rect x="256.0" y="88" width="106.0" height="384" fill="#A53E37"/>
    </g>
    <rect x="249.0" y="88" width="14" height="364" fill="url(#gold)" rx="2"/>
    <path d="M 256.0 96 L 340 146 L 344 356 Q 328.0 402 256.0 444 Q 184.0 402 168 356 L 172 146 Z" fill="none" stroke="#5E4A16" stroke-opacity="0.35" stroke-width="2"/>
    <path d="M 256.0 96 L 340 146 L 344 356 Q 328.0 402 256.0 444 Q 184.0 402 168 356 L 172 146 Z" fill="none" stroke="url(#gold)" stroke-width="3" opacity="0.75"/>
    <g>
      <rect x="158.0" y="248" width="18" height="116" fill="#C33B32" rx="1.2"/>
      <rect x="160.0" y="250" width="4" height="112" fill="#f5a39b" opacity="0.55"/>
    </g>
    <g transform="translate(324.0,304) scale(0.93,1)">
      <path d="M -42 62 L -8 -50 L 8 -50 L 42 62 L 22 62 L 14 34 L -14 34 L -22 62 Z M -10 16 L 10 16 L 0 -20 Z"
            fill="#3E7D1E"/>
    </g>
  </g>
</svg>